<svg xmlns="http://www.w3.org/2000/svg"  viewBox="0 0 50 50" width="50px" height="50px"><path d="M 5 2 C 3.355469 2 2 3.355469 2 5 L 2 35 C 2 36.644531 3.355469 38 5 38 L 19 38 L 19 40 L 10 40 C 9.96875 40 9.9375 40 9.90625 40 C 9.636719 40.027344 9.386719 40.160156 9.21875 40.375 L 4.21875 46.375 C 3.976563 46.675781 3.929688 47.085938 4.097656 47.433594 C 4.265625 47.78125 4.617188 48 5 48 L 45 48 C 45.382813 48 45.734375 47.78125 45.902344 47.433594 C 46.070313 47.085938 46.023438 46.675781 45.78125 46.375 L 40.78125 40.375 C 40.589844 40.136719 40.304688 40 40 40 L 31 40 L 31 38 L 45 38 C 46.644531 38 48 36.644531 48 35 L 48 5 C 48 3.355469 46.644531 2 45 2 Z M 5 4 L 45 4 C 45.554688 4 46 4.445313 46 5 L 46 35 C 46 35.554688 45.554688 36 45 36 L 5 36 C 4.445313 36 4 35.554688 4 35 L 4 5 C 4 4.445313 4.445313 4 5 4 Z M 6 6 L 6 34 L 44 34 L 44 6 Z M 8 8 L 42 8 L 42 32 L 8 32 Z M 19.28125 11.28125 L 11.28125 19.28125 L 10.59375 20 L 11.28125 20.71875 L 19.28125 28.71875 L 20.71875 27.28125 L 13.4375 20 L 20.71875 12.71875 Z M 30.71875 11.28125 L 29.28125 12.71875 L 36.5625 20 L 29.28125 27.28125 L 30.71875 28.71875 L 38.71875 20.71875 L 39.40625 20 L 38.71875 19.28125 Z M 21 38 L 29 38 L 29 42 L 21 42 Z M 10.46875 42 L 19 42 L 19 44 L 31 44 L 31 42 L 39.53125 42 L 42.875 46 L 7.125 46 Z"/></svg>