<svg enable-background="new 0 0 32 32" viewBox="0 0 32 32" xmlns="http://www.w3.org/2000/svg"><path d="m29.36 15.695v-3.389c.575-.159 1-.681 1-1.305 0-.75-.61-1.36-1.36-1.36-.191 0-.372.04-.537.111l-2.365-2.956c.163-.224.262-.498.262-.796 0-.75-.61-1.36-1.36-1.36-.401 0-.758.177-1.007.454l-3.659-1.83c.017-.085.026-.173.026-.264 0-.75-.61-1.36-1.36-1.36-.625 0-1.147.425-1.306 1h-4.389c-.159-.575-.681-1-1.305-1-.75 0-1.36.61-1.36 1.36 0 .091.01.179.027.264l-2.66 1.33c-.249-.276-.606-.454-1.007-.454-.75 0-1.36.61-1.36 1.36 0 .273.082.526.221.739l-2.263 2.546c-.181-.09-.382-.145-.598-.145-.75 0-1.36.61-1.36 1.36 0 .625.425 1.146 1 1.305v3.389c-.575.159-1 .681-1 1.305 0 .75.61 1.36 1.36 1.36.546 0 1.014-.325 1.231-.791l3.424.571c.071.685.643 1.221 1.345 1.221.091 0 .179-.01.264-.027l.83 1.659c-.276.25-.454.607-.454 1.008 0 .75.61 1.36 1.36 1.36.47 0 .885-.24 1.13-.604l3.518 1.173c-.002.024-.008.047-.008.071 0 .625.425 1.147 1 1.306v3.388c-.575.159-1 .681-1 1.306 0 .75.61 1.36 1.36 1.36s1.36-.61 1.36-1.36c0-.624-.425-1.147-1-1.306v-3.389c.575-.159 1-.681 1-1.306 0-.452-.224-.85-.564-1.098l.682-1.82 3.163.904c0 .005-.001.01-.001.015 0 .624.425 1.147 1 1.306v5.389c-.575.159-1 .681-1 1.306 0 .75.61 1.36 1.36 1.36s1.36-.61 1.36-1.36c0-.624-.425-1.147-1-1.306v-5.389c.575-.159 1-.681 1-1.306 0-.149-.03-.29-.074-.424l3.828-2.553c.239.208.546.337.886.337.75 0 1.36-.61 1.36-1.36 0-.624-.425-1.146-1-1.305zm-8.006-.763c-.002-.045-.007-.09-.014-.134l3.049-1.355 3.313 2.899zm-1.354.708c-.353 0-.64-.287-.64-.64s.287-.64.64-.64.64.287.64.64-.287.64-.64.64zm0-2c-.75 0-1.36.61-1.36 1.36 0 .452.224.85.564 1.097l-1.166 3.11-1.902-.543-1.465-5.126 5.463-3.756.628.489 3.028 2.65-2.745 1.22c-.249-.303-.622-.501-1.045-.501zm-10.869 2.013-1.009-5.803 3.612-.361v-.004c.196.51.687.875 1.266.875.005 0 .009-.001.014-.001l.823 2.879-3.966 2.726c-.205-.172-.459-.283-.74-.311zm3.869-6.013c-.353 0-.64-.287-.64-.64s.287-.64.64-.64.64.287.64.64-.287.64-.64.64zm-2.72 6.917 3.765-2.589 1.275 4.463-4.962-1.418c0-.005.001-.009.001-.014.001-.155-.031-.302-.079-.442zm13.849-9.521c.237.199.538.324.871.324.191 0 .372-.04.537-.111l2.365 2.955c-.163.224-.262.498-.262.796 0 .069.01.135.02.201l-3.144 1.397-3.295-2.883-.464-.361zm4.122 8.83-3.138-2.745 2.841-1.262c.176.213.412.371.686.446v3.389c-.139.039-.271.095-.389.172zm1.389-4.866c0 .353-.287.64-.64.64s-.64-.287-.64-.64.287-.64.64-.64.64.287.64.64zm-4.64-5.64c.353 0 .64.287.64.64s-.287.64-.64.64-.64-.287-.64-.64.287-.64.64-.64zm-6-3c.353 0 .64.287.64.64s-.287.64-.64.64-.64-.287-.64-.64.287-.64.64-.64zm0 2c.401 0 .758-.177 1.007-.454l3.659 1.83c-.017.085-.026.173-.026.264 0 .156.032.303.08.443l-3.56 2.448-6.904-5.37c.021-.051.035-.106.05-.161h4.389c.158.575.68 1 1.305 1zm-7-2c.353 0 .64.287.64.64s-.287.64-.64.64-.64-.287-.64-.64.287-.64.64-.64zm-1.007 1.546c.249.276.606.454 1.007.454.304 0 .583-.104.81-.274l6.728 5.232-5.075 3.489-.757-2.65c.39-.239.654-.666.654-1.157 0-.75-.61-1.36-1.36-1.36-.673 0-1.229.492-1.337 1.135v-.003l-3.665.366-.42-2.412c.461-.218.782-.684.782-1.226 0-.091-.01-.179-.027-.264zm-6.728 5.605c-.034-.088-.075-.172-.126-.25l2.263-2.546c.143.071.3.115.467.132l.411 2.363zm2.735-4.651c.353 0 .64.287.64.64s-.287.64-.64.64-.64-.287-.64-.64.287-.64.64-.64zm-4.64 5.14c0-.353.287-.64.64-.64s.64.287.64.64-.287.64-.64.64-.64-.287-.64-.64zm.64 6.64c-.353 0-.64-.287-.64-.64s.287-.64.64-.64.64.287.64.64-.287.64-.64.64zm4.769-.21-3.424-.571c-.059-.561-.455-1.018-.986-1.165v-3.389c.503-.139.888-.556.977-1.077l3.067-.307 1.018 5.853c-.286.136-.517.368-.652.656zm.591.57c0-.353.287-.64.64-.64s.64.287.64.64-.287.64-.64.64-.64-.287-.64-.64zm2.64 4.64c-.353 0-.64-.287-.64-.64s.287-.64.64-.64.64.287.64.64-.287.64-.64.64zm1.353-.569c.001-.024.007-.047.007-.071 0-.75-.61-1.36-1.36-1.36-.091 0-.179.01-.264.027l-.83-1.659c.098-.088.182-.189.251-.302l5.396 1.541.742 2.596c-.168.103-.315.238-.425.402zm5.287 7.929c0 .353-.287.64-.64.64s-.64-.287-.64-.64.287-.64.64-.64.64.287.64.64zm-.64-5.36c-.353 0-.64-.287-.64-.64s.287-.64.64-.64.64.287.64.64-.287.64-.64.64zm.121-1.988c-.041-.004-.08-.012-.121-.012-.005 0-.009.001-.014.001l-.618-2.162 1.416.404zm1.611-2.246 1.147-3.059c.041.004.08.012.121.012.519 0 .967-.296 1.196-.725l6.451 1.433c.006.124.03.243.068.356l-3.828 2.553c-.24-.207-.547-.336-.887-.336-.491 0-.918.264-1.158.655zm4.908 9.594c0 .353-.287.64-.64.64s-.64-.287-.64-.64.287-.64.64-.64.64.287.64.64zm-.64-7.36c-.353 0-.64-.287-.64-.64s.287-.64.64-.64.64.287.64.64-.287.64-.64.64zm6-4c-.353 0-.64-.287-.64-.64s.287-.64.64-.64.64.287.64.64-.287.64-.64.64z"/><path d="m0 0h32v32h-32z" fill="none"/></svg>